M48
; DRILL file {KiCad 5.1.10-88a1d61d58~88~ubuntu20.10.1} date Mon May 10 18:26:56 2021
; FORMAT={-:-/ absolute / inch / decimal}
; #@! TF.CreationDate,2021-05-10T18:26:56-04:00
; #@! TF.GenerationSoftware,Kicad,Pcbnew,5.1.10-88a1d61d58~88~ubuntu20.10.1
; #@! TF.FileFunction,NonPlated,1,2,NPTH
FMAT,2
INCH
T1C0.0669
T2C0.1575
%
G90
G05
T1
X11.675Y-2.625
X11.675Y-3.375
X11.675Y-4.125
X11.675Y-4.875
X11.675Y-5.625
X11.675Y-6.375
X12.075Y-2.625
X12.075Y-3.375
X12.075Y-4.125
X12.075Y-4.875
X12.075Y-5.625
X12.075Y-6.375
X12.425Y-2.625
X12.425Y-3.375
X12.425Y-4.125
X12.425Y-4.875
X12.425Y-5.625
X12.425Y-6.375
X12.825Y-2.625
X12.825Y-3.375
X12.825Y-4.125
X12.825Y-4.875
X12.825Y-5.625
X12.825Y-6.375
X13.175Y-2.625
X13.175Y-3.375
X13.175Y-4.125
X13.175Y-4.875
X13.175Y-5.625
X13.175Y-6.375
X13.575Y-2.625
X13.575Y-3.375
X13.575Y-4.125
X13.575Y-4.875
X13.575Y-5.625
X13.575Y-6.375
X13.925Y-2.625
X13.925Y-3.375
X13.925Y-4.125
X13.925Y-4.875
X13.925Y-5.625
X13.925Y-6.375
X14.325Y-2.625
X14.325Y-3.375
X14.325Y-4.125
X14.325Y-4.875
X14.325Y-5.625
X14.325Y-6.375
X14.675Y-2.625
X14.675Y-3.375
X14.675Y-4.125
X14.675Y-4.875
X14.675Y-5.625
X14.675Y-6.375
X15.075Y-2.625
X15.075Y-3.375
X15.075Y-4.125
X15.075Y-4.875
X15.075Y-5.625
X15.075Y-6.375
X15.425Y-2.625
X15.425Y-3.375
X15.425Y-4.125
X15.425Y-4.875
X15.425Y-5.625
X15.425Y-6.375
X15.825Y-2.625
X15.825Y-3.375
X15.825Y-4.125
X15.825Y-4.875
X15.825Y-5.625
X15.825Y-6.375
X16.175Y-2.625
X16.175Y-3.375
X16.175Y-4.125
X16.175Y-4.875
X16.175Y-5.625
X16.175Y-6.375
X16.575Y-2.625
X16.575Y-3.375
X16.575Y-4.125
X16.575Y-4.875
X16.575Y-5.625
X16.575Y-6.375
X16.925Y-2.625
X16.925Y-3.375
X16.925Y-4.125
X16.925Y-4.875
X16.925Y-5.625
X16.925Y-6.375
X17.325Y-2.625
X17.325Y-3.375
X17.325Y-4.125
X17.325Y-4.875
X17.325Y-5.625
X17.325Y-6.375
X17.675Y-2.625
X17.675Y-3.375
X17.675Y-4.125
X17.675Y-4.875
X17.675Y-5.625
X17.675Y-6.375
X18.075Y-2.625
X18.075Y-3.375
X18.075Y-4.125
X18.075Y-4.875
X18.075Y-5.625
X18.075Y-6.375
X18.425Y-2.625
X18.425Y-3.375
X18.425Y-4.125
X18.425Y-4.875
X18.425Y-5.625
X18.425Y-6.375
X18.825Y-2.625
X18.825Y-3.375
X18.825Y-4.125
X18.825Y-4.875
X18.825Y-5.625
X18.825Y-6.375
X19.175Y-2.625
X19.175Y-3.375
X19.175Y-4.125
X19.175Y-4.875
X19.175Y-5.625
X19.175Y-6.375
X19.575Y-2.625
X19.575Y-3.375
X19.575Y-4.125
X19.575Y-4.875
X19.575Y-5.625
X19.575Y-6.375
X19.925Y-2.625
X19.925Y-3.375
X19.925Y-4.125
X19.925Y-4.875
X19.925Y-5.625
X19.925Y-6.375
X20.325Y-2.625
X20.325Y-3.375
X20.325Y-4.125
X20.325Y-4.875
X20.325Y-5.625
X20.325Y-6.375
X20.675Y-2.625
X20.675Y-3.375
X20.675Y-4.125
X20.675Y-4.875
X20.675Y-5.625
X20.675Y-6.375
X21.075Y-2.625
X21.075Y-3.375
X21.075Y-4.125
X21.075Y-4.875
X21.075Y-5.625
X21.075Y-6.375
X21.425Y-2.625
X21.425Y-3.375
X21.425Y-4.125
X21.425Y-4.875
X21.425Y-5.625
X21.425Y-6.375
X21.825Y-2.625
X21.825Y-3.375
X21.825Y-4.125
X21.825Y-4.875
X21.825Y-5.625
X21.825Y-6.375
X22.175Y-2.625
X22.175Y-3.375
X22.175Y-4.125
X22.175Y-4.875
X22.175Y-5.625
X22.175Y-6.375
X22.575Y-2.625
X22.575Y-3.375
X22.575Y-4.125
X22.575Y-4.875
X22.575Y-5.625
X22.575Y-6.375
X22.925Y-2.625
X22.925Y-3.375
X22.925Y-4.125
X22.925Y-4.875
X22.925Y-5.625
X22.925Y-6.375
X23.325Y-2.625
X23.325Y-3.375
X23.325Y-4.125
X23.325Y-4.875
X23.325Y-5.625
X23.325Y-6.375
T2
X11.875Y-2.625
X11.875Y-3.375
X11.875Y-4.125
X11.875Y-4.875
X11.875Y-5.625
X11.875Y-6.375
X12.625Y-2.625
X12.625Y-3.375
X12.625Y-4.125
X12.625Y-4.875
X12.625Y-5.625
X12.625Y-6.375
X13.375Y-2.625
X13.375Y-3.375
X13.375Y-4.125
X13.375Y-4.875
X13.375Y-5.625
X13.375Y-6.375
X14.125Y-2.625
X14.125Y-3.375
X14.125Y-4.125
X14.125Y-4.875
X14.125Y-5.625
X14.125Y-6.375
X14.875Y-2.625
X14.875Y-3.375
X14.875Y-4.125
X14.875Y-4.875
X14.875Y-5.625
X14.875Y-6.375
X15.625Y-2.625
X15.625Y-3.375
X15.625Y-4.125
X15.625Y-4.875
X15.625Y-5.625
X15.625Y-6.375
X16.375Y-2.625
X16.375Y-3.375
X16.375Y-4.125
X16.375Y-4.875
X16.375Y-5.625
X16.375Y-6.375
X17.125Y-2.625
X17.125Y-3.375
X17.125Y-4.125
X17.125Y-4.875
X17.125Y-5.625
X17.125Y-6.375
X17.875Y-2.625
X17.875Y-3.375
X17.875Y-4.125
X17.875Y-4.875
X17.875Y-5.625
X17.875Y-6.375
X18.625Y-2.625
X18.625Y-3.375
X18.625Y-4.125
X18.625Y-4.875
X18.625Y-5.625
X18.625Y-6.375
X19.375Y-2.625
X19.375Y-3.375
X19.375Y-4.125
X19.375Y-4.875
X19.375Y-5.625
X19.375Y-6.375
X20.125Y-2.625
X20.125Y-3.375
X20.125Y-4.125
X20.125Y-4.875
X20.125Y-5.625
X20.125Y-6.375
X20.875Y-2.625
X20.875Y-3.375
X20.875Y-4.125
X20.875Y-4.875
X20.875Y-5.625
X20.875Y-6.375
X21.625Y-2.625
X21.625Y-3.375
X21.625Y-4.125
X21.625Y-4.875
X21.625Y-5.625
X21.625Y-6.375
X22.375Y-2.625
X22.375Y-3.375
X22.375Y-4.125
X22.375Y-4.875
X22.375Y-5.625
X22.375Y-6.375
X23.125Y-2.625
X23.125Y-3.375
X23.125Y-4.125
X23.125Y-4.875
X23.125Y-5.625
X23.125Y-6.375
T0
M30
