M48
; DRILL file {KiCad 5.1.10-88a1d61d58~88~ubuntu20.10.1} date Mon May 10 18:26:56 2021
; FORMAT={-:-/ absolute / inch / decimal}
; #@! TF.CreationDate,2021-05-10T18:26:56-04:00
; #@! TF.GenerationSoftware,Kicad,Pcbnew,5.1.10-88a1d61d58~88~ubuntu20.10.1
; #@! TF.FileFunction,Plated,1,2,PTH
FMAT,2
INCH
T1C0.0157
T2C0.0236
T3C0.0295
T4C0.0315
T5C0.0400
T6C0.0433
T7C0.0591
T8C0.1102
%
G90
G05
T1
X20.4407Y-1.6869
X20.4407Y-1.74
X20.4742Y-1.6869
X20.4742Y-1.74
X20.5077Y-1.6869
X20.5077Y-1.74
X20.5411Y-1.6869
X20.5411Y-1.74
X20.5746Y-1.6869
X20.5746Y-1.74
X20.6081Y-1.6869
X20.6081Y-1.74
X20.6415Y-1.6869
X20.6415Y-1.74
X20.675Y-1.6869
X20.675Y-1.74
X20.8848Y-1.7944
X20.91Y-1.7551
X21.0159Y-1.6675
X21.0734Y-1.9585
X21.0795Y-2.4545
X21.08Y-2.3974
X21.1096Y-2.4234
X21.2552Y-1.7944
X21.2948Y-1.7266
X21.605Y-2.3974
X21.635Y-2.426
X21.73Y-2.2695
X21.786Y-2.3974
X22.0323Y-1.7738
X22.0607Y-1.8024
X22.14Y-1.7738
X22.1678Y-1.8025
T3
X11.775Y-1.625
X11.775Y-1.925
X11.85Y-1.675
X11.85Y-1.975
X11.925Y-1.725
X11.925Y-2.025
X12.0Y-1.775
X12.0Y-2.075
X12.075Y-1.825
X12.075Y-2.125
X12.15Y-1.875
X12.15Y-2.175
X12.225Y-1.625
X12.225Y-1.925
X12.3Y-1.675
X12.3Y-1.975
X12.375Y-1.725
X12.375Y-2.025
X12.45Y-1.775
X12.45Y-2.075
X12.525Y-1.825
X12.525Y-2.125
X12.6Y-1.875
X12.6Y-2.175
X12.675Y-1.625
X12.675Y-1.925
X12.75Y-1.675
X12.75Y-1.975
X12.825Y-1.725
X12.825Y-2.025
X12.9Y-1.775
X12.9Y-2.075
X12.975Y-1.825
X12.975Y-2.125
X13.05Y-1.875
X13.05Y-2.175
X13.125Y-1.625
X13.125Y-1.925
X13.2Y-1.675
X13.2Y-1.975
X13.275Y-1.725
X13.275Y-2.025
X13.35Y-1.775
X13.35Y-2.075
X13.425Y-1.825
X13.425Y-2.125
X13.5Y-1.875
X13.5Y-2.175
X13.575Y-1.625
X13.575Y-1.925
X13.65Y-1.675
X13.65Y-1.975
X13.725Y-1.725
X13.725Y-2.025
X13.8Y-1.775
X13.8Y-2.075
X13.875Y-1.825
X13.875Y-2.125
X13.95Y-1.875
X13.95Y-2.175
X14.025Y-1.625
X14.025Y-1.925
X14.1Y-1.675
X14.1Y-1.975
X14.175Y-1.725
X14.175Y-2.025
X14.25Y-1.775
X14.25Y-2.075
X14.325Y-1.825
X14.325Y-2.125
X14.4Y-1.875
X14.4Y-2.175
X14.475Y-1.625
X14.475Y-1.925
X14.55Y-1.675
X14.55Y-1.975
X14.625Y-1.725
X14.625Y-2.025
X14.7Y-1.775
X14.7Y-2.075
X14.775Y-1.825
X14.775Y-2.125
X14.85Y-1.875
X14.85Y-2.175
X14.925Y-1.625
X14.925Y-1.925
X15.0Y-1.675
X15.0Y-1.975
X15.075Y-1.725
X15.075Y-2.025
X15.15Y-1.775
X15.15Y-2.075
X15.225Y-1.825
X15.225Y-2.125
X15.3Y-1.875
X15.3Y-2.175
X15.375Y-1.625
X15.375Y-1.925
X15.45Y-1.675
X15.45Y-1.975
X15.525Y-1.725
X15.525Y-2.025
X15.6Y-1.775
X15.6Y-2.075
X15.675Y-1.825
X15.675Y-2.125
X15.75Y-1.875
X15.75Y-2.175
X15.825Y-1.625
X15.825Y-1.925
X15.9Y-1.675
X15.9Y-1.975
X15.975Y-1.725
X15.975Y-2.025
X16.05Y-1.775
X16.05Y-2.075
X16.125Y-1.825
X16.125Y-2.125
X16.2Y-1.875
X16.2Y-2.175
X16.275Y-1.625
X16.275Y-1.925
X16.35Y-1.675
X16.35Y-1.975
X16.425Y-1.725
X16.425Y-2.025
X16.5Y-1.775
X16.5Y-2.075
X16.575Y-1.825
X16.575Y-2.125
X16.65Y-1.875
X16.65Y-2.175
X16.725Y-1.625
X16.725Y-1.925
X16.8Y-1.675
X16.8Y-1.975
X16.875Y-1.725
X16.875Y-2.025
X16.95Y-1.775
X16.95Y-2.075
X17.025Y-1.825
X17.025Y-2.125
X17.1Y-1.875
X17.1Y-2.175
X17.175Y-1.625
X17.175Y-1.925
X17.25Y-1.675
X17.25Y-1.975
X17.325Y-1.725
X17.325Y-2.025
X17.4Y-1.775
X17.4Y-2.075
X17.475Y-1.825
X17.475Y-2.125
X17.55Y-1.875
X17.55Y-2.175
X17.625Y-1.625
X17.625Y-1.925
X17.7Y-1.675
X17.7Y-1.975
X17.775Y-1.725
X17.775Y-2.025
X17.85Y-1.775
X17.85Y-2.075
X17.925Y-1.825
X17.925Y-2.125
X18.0Y-1.875
X18.0Y-2.175
X18.075Y-1.625
X18.075Y-1.925
X18.15Y-1.675
X18.15Y-1.975
X18.225Y-1.725
X18.225Y-2.025
X18.3Y-1.775
X18.3Y-2.075
X18.375Y-1.825
X18.375Y-2.125
X18.45Y-1.875
X18.45Y-2.175
X18.525Y-1.625
X18.525Y-1.925
X18.6Y-1.675
X18.6Y-1.975
X18.675Y-1.725
X18.675Y-2.025
X18.75Y-1.775
X18.75Y-2.075
X18.825Y-1.825
X18.825Y-2.125
X18.9Y-1.875
X18.9Y-2.175
X20.475Y-1.875
X20.475Y-2.175
X20.575Y-1.875
X20.575Y-2.175
T4
X20.075Y-1.92
X20.075Y-2.05
X20.075Y-2.175
X20.375Y-1.92
X20.375Y-2.05
X20.375Y-2.175
X20.675Y-1.925
X20.675Y-2.05
X20.675Y-2.175
X20.9Y-1.6213
X20.9Y-1.7
X20.975Y-1.925
X20.975Y-2.05
X20.975Y-2.175
X21.1Y-1.575
X21.1Y-2.175
X21.2Y-1.575
X21.2Y-2.175
X21.3Y-1.575
X21.3Y-2.175
X21.4Y-1.575
X21.4Y-2.175
X21.5Y-1.575
X21.5Y-2.175
X21.6Y-1.575
X21.6Y-2.175
X21.7Y-1.575
X21.7Y-2.175
X21.8Y-1.575
X21.8Y-2.175
X21.9Y-1.575
X21.9Y-2.175
X22.0Y-1.575
X22.0Y-2.175
X22.1Y-1.575
X22.1Y-2.175
X22.2Y-1.575
X22.2Y-2.175
X22.3Y-1.575
X22.3Y-2.175
X22.4Y-1.575
X22.4Y-2.175
X22.5Y-1.575
X22.5Y-2.175
X22.6Y-1.575
X22.6Y-2.175
X22.7Y-1.575
X22.7Y-2.175
X22.8Y-1.575
X22.8Y-2.175
X22.9Y-1.575
X22.9Y-2.175
X23.0Y-1.575
X23.0Y-2.175
X23.1266Y-1.575
X23.1266Y-2.175
X23.175Y-1.7829
X23.175Y-1.975
X23.225Y-1.575
X23.225Y-2.175
T5
X20.075Y-1.625
X20.075Y-1.725
X20.175Y-1.625
X20.175Y-1.725
X20.275Y-1.625
X20.275Y-1.725
T6
X19.6691Y-1.6228
X19.6691Y-1.8
X19.6691Y-1.9478
X19.6691Y-2.125
X19.925Y-1.6228
X19.925Y-1.8
X19.925Y-1.9478
X19.925Y-2.125
T7
X11.725Y-2.525
X11.725Y-3.275
X11.725Y-4.025
X11.725Y-4.775
X11.725Y-5.525
X11.725Y-6.275
X11.975Y-2.425
X11.975Y-3.175
X11.975Y-3.925
X11.975Y-4.675
X11.975Y-5.425
X11.975Y-6.175
X12.475Y-2.525
X12.475Y-3.275
X12.475Y-4.025
X12.475Y-4.775
X12.475Y-5.525
X12.475Y-6.275
X12.725Y-2.425
X12.725Y-3.175
X12.725Y-3.925
X12.725Y-4.675
X12.725Y-5.425
X12.725Y-6.175
X13.225Y-2.525
X13.225Y-3.275
X13.225Y-4.025
X13.225Y-4.775
X13.225Y-5.525
X13.225Y-6.275
X13.475Y-2.425
X13.475Y-3.175
X13.475Y-3.925
X13.475Y-4.675
X13.475Y-5.425
X13.475Y-6.175
X13.975Y-2.525
X13.975Y-3.275
X13.975Y-4.025
X13.975Y-4.775
X13.975Y-5.525
X13.975Y-6.275
X14.225Y-2.425
X14.225Y-3.175
X14.225Y-3.925
X14.225Y-4.675
X14.225Y-5.425
X14.225Y-6.175
X14.725Y-2.525
X14.725Y-3.275
X14.725Y-4.025
X14.725Y-4.775
X14.725Y-5.525
X14.725Y-6.275
X14.975Y-2.425
X14.975Y-3.175
X14.975Y-3.925
X14.975Y-4.675
X14.975Y-5.425
X14.975Y-6.175
X15.475Y-2.525
X15.475Y-3.275
X15.475Y-4.025
X15.475Y-4.775
X15.475Y-5.525
X15.475Y-6.275
X15.725Y-2.425
X15.725Y-3.175
X15.725Y-3.925
X15.725Y-4.675
X15.725Y-5.425
X15.725Y-6.175
X16.225Y-2.525
X16.225Y-3.275
X16.225Y-4.025
X16.225Y-4.775
X16.225Y-5.525
X16.225Y-6.275
X16.475Y-2.425
X16.475Y-3.175
X16.475Y-3.925
X16.475Y-4.675
X16.475Y-5.425
X16.475Y-6.175
X16.975Y-2.525
X16.975Y-3.275
X16.975Y-4.025
X16.975Y-4.775
X16.975Y-5.525
X16.975Y-6.275
X17.225Y-2.425
X17.225Y-3.175
X17.225Y-3.925
X17.225Y-4.675
X17.225Y-5.425
X17.225Y-6.175
X17.725Y-2.525
X17.725Y-3.275
X17.725Y-4.025
X17.725Y-4.775
X17.725Y-5.525
X17.725Y-6.275
X17.975Y-2.425
X17.975Y-3.175
X17.975Y-3.925
X17.975Y-4.675
X17.975Y-5.425
X17.975Y-6.175
X18.475Y-2.525
X18.475Y-3.275
X18.475Y-4.025
X18.475Y-4.775
X18.475Y-5.525
X18.475Y-6.275
X18.725Y-2.425
X18.725Y-3.175
X18.725Y-3.925
X18.725Y-4.675
X18.725Y-5.425
X18.725Y-6.175
X19.225Y-2.525
X19.225Y-3.275
X19.225Y-4.025
X19.225Y-4.775
X19.225Y-5.525
X19.225Y-6.275
X19.475Y-2.425
X19.475Y-3.175
X19.475Y-3.925
X19.475Y-4.675
X19.475Y-5.425
X19.475Y-6.175
X19.975Y-2.525
X19.975Y-3.275
X19.975Y-4.025
X19.975Y-4.775
X19.975Y-5.525
X19.975Y-6.275
X20.225Y-2.425
X20.225Y-3.175
X20.225Y-3.925
X20.225Y-4.675
X20.225Y-5.425
X20.225Y-6.175
X20.725Y-2.525
X20.725Y-3.275
X20.725Y-4.025
X20.725Y-4.775
X20.725Y-5.525
X20.725Y-6.275
X20.975Y-2.425
X20.975Y-3.175
X20.975Y-3.925
X20.975Y-4.675
X20.975Y-5.425
X20.975Y-6.175
X21.475Y-2.525
X21.475Y-3.275
X21.475Y-4.025
X21.475Y-4.775
X21.475Y-5.525
X21.475Y-6.275
X21.725Y-2.425
X21.725Y-3.175
X21.725Y-3.925
X21.725Y-4.675
X21.725Y-5.425
X21.725Y-6.175
X22.225Y-2.525
X22.225Y-3.275
X22.225Y-4.025
X22.225Y-4.775
X22.225Y-5.525
X22.225Y-6.275
X22.475Y-2.425
X22.475Y-3.175
X22.475Y-3.925
X22.475Y-4.675
X22.475Y-5.425
X22.475Y-6.175
X22.975Y-2.525
X22.975Y-3.275
X22.975Y-4.025
X22.975Y-4.775
X22.975Y-5.525
X22.975Y-6.275
X23.225Y-2.425
X23.225Y-3.175
X23.225Y-3.925
X23.225Y-4.675
X23.225Y-5.425
X23.225Y-6.175
T8
X11.625Y-1.625
X11.625Y-2.125
X12.25Y-3.0
X12.25Y-6.0
X17.5Y-4.5
X22.75Y-3.0
X22.75Y-6.0
X23.375Y-1.625
X23.375Y-2.125
T2
G00X20.3876Y-1.5841
M15
G01X20.3876Y-1.5526
M16
G05
G00X20.3876Y-1.7309
M15
G01X20.3876Y-1.6719
M16
G05
G00X20.7281Y-1.5841
M15
G01X20.7281Y-1.5526
M16
G05
G00X20.7281Y-1.7309
M15
G01X20.7281Y-1.6719
M16
G05
T0
M30
